<svg width="26" height="14" viewBox="0 0 26 14" fill="none" xmlns="http://www.w3.org/2000/svg">
<path d="M9.036 0.364V8.968C9.036 10.3 8.658 11.326 7.902 12.046C7.158 12.766 6.15 13.126 4.878 13.126C3.546 13.126 2.478 12.748 1.674 11.992C0.87 11.236 0.468 10.162 0.468 8.77H3.528C3.528 9.298 3.636 9.7 3.852 9.976C4.068 10.24 4.38 10.372 4.788 10.372C5.16 10.372 5.448 10.252 5.652 10.012C5.856 9.772 5.958 9.424 5.958 8.968V0.364H9.036ZM25.8323 0.364V13H22.7543V5.422L19.9283 13H17.4443L14.6003 5.404V13H11.5223V0.364H15.1582L18.7043 9.112L22.2143 0.364H25.8323Z" fill="#DE2863"/>
</svg>
